<mxfile host="65bd71144e">
    <diagram id="YGwY25YeeEG1eAsVhsMC" name="Page-1">
        <mxGraphModel dx="1649" dy="897" grid="1" gridSize="10" guides="1" tooltips="1" connect="1" arrows="1" fold="1" page="1" pageScale="1" pageWidth="850" pageHeight="1100" background="#ffffff" math="0" shadow="0">
            <root>
                <mxCell id="0"/>
                <mxCell id="1" parent="0"/>
                <mxCell id="5" value="&lt;font color=&quot;#000000&quot;&gt;&lt;b&gt;&lt;font style=&quot;font-size: 16px&quot;&gt;App&lt;/font&gt;&lt;/b&gt;&lt;br&gt;&lt;/font&gt;" style="rounded=0;whiteSpace=wrap;html=1;strokeColor=#10739e;fillColor=#FFFFFF;verticalAlign=top;" parent="1" vertex="1">
                    <mxGeometry x="10" y="40" width="1370" height="750" as="geometry"/>
                </mxCell>
                <mxCell id="2" value="&lt;font color=&quot;#000000&quot; style=&quot;font-size: 16px;&quot;&gt;Header&lt;/font&gt;" style="rounded=0;whiteSpace=wrap;html=1;fillColor=#b1ddf0;strokeColor=#10739e;fontSize=16;fontStyle=1" parent="1" vertex="1">
                    <mxGeometry x="20" y="70" width="830" height="60" as="geometry"/>
                </mxCell>
                <mxCell id="4" value="&lt;font color=&quot;#000000&quot;&gt;KegControl&lt;/font&gt;" style="rounded=0;whiteSpace=wrap;html=1;fillColor=#b1ddf0;strokeColor=#10739e;fontStyle=1;fontSize=16;verticalAlign=top;" parent="1" vertex="1">
                    <mxGeometry x="20" y="140" width="830" height="640" as="geometry"/>
                </mxCell>
                <mxCell id="61" value="" style="edgeStyle=none;curved=1;html=1;strokeColor=#000000;entryX=0;entryY=0.75;entryDx=0;entryDy=0;startArrow=openThin;startFill=0;" edge="1" parent="1" source="6" target="8">
                    <mxGeometry relative="1" as="geometry"/>
                </mxCell>
                <mxCell id="63" value="" style="edgeStyle=none;curved=1;html=1;startArrow=openThin;startFill=0;strokeColor=#000000;" edge="1" parent="1" source="6" target="10">
                    <mxGeometry relative="1" as="geometry"/>
                </mxCell>
                <mxCell id="6" value="&lt;font color=&quot;#000000&quot;&gt;Image&lt;br&gt;&lt;/font&gt;" style="rounded=0;whiteSpace=wrap;html=1;fillColor=#b1ddf0;strokeColor=#10739e;fontStyle=1;fontSize=16;verticalAlign=top;" parent="1" vertex="1">
                    <mxGeometry x="460" y="180" width="380" height="585" as="geometry"/>
                </mxCell>
                <mxCell id="8" value="&lt;font color=&quot;#000000&quot;&gt;KegDetail&lt;br&gt;&lt;/font&gt;" style="rounded=0;whiteSpace=wrap;html=1;fillColor=#b1ddf0;strokeColor=#10739e;fontStyle=1;fontSize=16;verticalAlign=top;" parent="1" vertex="1">
                    <mxGeometry x="870" y="70" width="500" height="380" as="geometry"/>
                </mxCell>
                <mxCell id="10" value="&lt;font color=&quot;#000000&quot;&gt;KegForm&lt;br&gt;&lt;/font&gt;" style="rounded=0;whiteSpace=wrap;html=1;fillColor=#b1ddf0;strokeColor=#10739e;fontStyle=1;fontSize=16;verticalAlign=top;" parent="1" vertex="1">
                    <mxGeometry x="870" y="470" width="500" height="310" as="geometry"/>
                </mxCell>
                <mxCell id="13" value="&lt;font color=&quot;#000000&quot;&gt;KegList&lt;br&gt;&lt;/font&gt;" style="rounded=0;whiteSpace=wrap;html=1;fillColor=#b1ddf0;strokeColor=#10739e;fontStyle=1;fontSize=16;verticalAlign=top;" parent="1" vertex="1">
                    <mxGeometry x="30" y="180" width="405" height="585" as="geometry"/>
                </mxCell>
                <mxCell id="30" value="" style="edgeStyle=none;jumpStyle=arc;html=1;fontSize=12;fontColor=#000000;startArrow=none;startFill=0;strokeColor=#000000;entryX=0;entryY=0.526;entryDx=0;entryDy=0;entryPerimeter=0;sketch=0;curved=1;" parent="1" target="8" edge="1">
                    <mxGeometry relative="1" as="geometry">
                        <Array as="points">
                            <mxPoint x="460" y="180"/>
                            <mxPoint x="630" y="120"/>
                            <mxPoint x="800" y="180"/>
                        </Array>
                        <mxPoint x="420" y="235" as="sourcePoint"/>
                    </mxGeometry>
                </mxCell>
                <mxCell id="48" value="" style="edgeStyle=none;curved=1;sketch=0;jumpStyle=arc;html=1;fontSize=12;fontColor=#000000;startArrow=none;startFill=0;endArrow=classic;endFill=1;strokeColor=#000000;" parent="1" source="44" edge="1">
                    <mxGeometry relative="1" as="geometry">
                        <mxPoint x="1040" y="470" as="targetPoint"/>
                    </mxGeometry>
                </mxCell>
                <mxCell id="44" value="Edit Keg" style="rounded=1;whiteSpace=wrap;html=1;fontSize=12;fillColor=#FFFFFF;verticalAlign=top;fontStyle=1;fontColor=#000000;" parent="1" vertex="1">
                    <mxGeometry x="1002.4161409395974" y="400" width="118.79194630872483" height="30" as="geometry"/>
                </mxCell>
                <mxCell id="45" value="Delete Keg" style="rounded=1;whiteSpace=wrap;html=1;fontSize=12;fillColor=#FFFFFF;verticalAlign=top;fontStyle=1;fontColor=#000000;" parent="1" vertex="1">
                    <mxGeometry x="1121.2080872483223" y="400" width="118.79194630872483" height="30" as="geometry"/>
                </mxCell>
                <mxCell id="57" value="" style="edgeStyle=none;html=1;strokeColor=#000000;entryX=1.005;entryY=0.776;entryDx=0;entryDy=0;entryPerimeter=0;" edge="1" parent="1" source="49" target="6">
                    <mxGeometry relative="1" as="geometry"/>
                </mxCell>
                <mxCell id="59" value="" style="edgeStyle=none;html=1;strokeColor=#000000;entryX=0.592;entryY=1.008;entryDx=0;entryDy=0;entryPerimeter=0;" edge="1" parent="1" source="49" target="8">
                    <mxGeometry relative="1" as="geometry">
                        <mxPoint x="1009.6999999999998" y="660" as="targetPoint"/>
                    </mxGeometry>
                </mxCell>
                <mxCell id="49" value="Go Back" style="rounded=1;whiteSpace=wrap;html=1;fontSize=12;fillColor=#FFFFFF;verticalAlign=top;fontStyle=1;fontColor=#000000;" parent="1" vertex="1">
                    <mxGeometry x="1156" y="735" width="119.4" height="30" as="geometry"/>
                </mxCell>
                <mxCell id="50" value="&lt;font color=&quot;#000000&quot;&gt;Keg&lt;br&gt;&lt;/font&gt;" style="rounded=0;whiteSpace=wrap;html=1;fillColor=#b1ddf0;strokeColor=#10739e;fontStyle=1;fontSize=16;verticalAlign=top;" vertex="1" parent="1">
                    <mxGeometry x="42.5" y="212.5" width="380" height="45" as="geometry"/>
                </mxCell>
                <mxCell id="51" value="&lt;font color=&quot;#000000&quot;&gt;Keg&lt;br&gt;&lt;/font&gt;" style="rounded=0;whiteSpace=wrap;html=1;fillColor=#b1ddf0;strokeColor=#10739e;fontStyle=1;fontSize=16;verticalAlign=top;" vertex="1" parent="1">
                    <mxGeometry x="42.5" y="325" width="380" height="45" as="geometry"/>
                </mxCell>
                <mxCell id="52" value="&lt;font color=&quot;#000000&quot;&gt;Keg&lt;br&gt;&lt;/font&gt;" style="rounded=0;whiteSpace=wrap;html=1;fillColor=#b1ddf0;strokeColor=#10739e;fontStyle=1;fontSize=16;verticalAlign=top;" vertex="1" parent="1">
                    <mxGeometry x="42.5" y="270" width="380" height="45" as="geometry"/>
                </mxCell>
                <mxCell id="54" value="" style="edgeStyle=none;html=1;strokeColor=#000000;entryX=-0.002;entryY=0.374;entryDx=0;entryDy=0;entryPerimeter=0;" edge="1" parent="1" source="53" target="10">
                    <mxGeometry relative="1" as="geometry"/>
                </mxCell>
                <mxCell id="53" value="Edit Keg" style="rounded=1;whiteSpace=wrap;html=1;fontSize=12;fillColor=#FFFFFF;verticalAlign=top;fontStyle=1;fontColor=#000000;" vertex="1" parent="1">
                    <mxGeometry x="173.10614093959737" y="380" width="118.79194630872483" height="30" as="geometry"/>
                </mxCell>
                <mxCell id="60" value="" style="edgeStyle=none;html=1;strokeColor=#000000;curved=1;exitX=0.25;exitY=1;exitDx=0;exitDy=0;entryX=1;entryY=0.479;entryDx=0;entryDy=0;entryPerimeter=0;" edge="1" parent="1" source="55" target="6">
                    <mxGeometry relative="1" as="geometry">
                        <mxPoint x="850" y="460" as="targetPoint"/>
                        <Array as="points">
                            <mxPoint x="1040" y="470"/>
                        </Array>
                    </mxGeometry>
                </mxCell>
                <mxCell id="55" value="Close Keg Details" style="rounded=1;whiteSpace=wrap;html=1;fontSize=12;fillColor=#FFFFFF;verticalAlign=top;fontStyle=1;fontColor=#000000;" vertex="1" parent="1">
                    <mxGeometry x="1239.9961409395974" y="400" width="118.79194630872483" height="30" as="geometry"/>
                </mxCell>
                <mxCell id="56" value="Sell a Pint" style="rounded=1;whiteSpace=wrap;html=1;fontSize=12;fillColor=#FFFFFF;verticalAlign=top;fontStyle=1;fontColor=#000000;" vertex="1" parent="1">
                    <mxGeometry x="883.6261409395973" y="400" width="118.79194630872483" height="30" as="geometry"/>
                </mxCell>
                <mxCell id="62" value="Add Keg" style="rounded=1;whiteSpace=wrap;html=1;fontSize=12;fillColor=#FFFFFF;verticalAlign=top;fontStyle=1;fontColor=#000000;" vertex="1" parent="1">
                    <mxGeometry x="990" y="735" width="119.4" height="30" as="geometry"/>
                </mxCell>
            </root>
        </mxGraphModel>
    </diagram>
</mxfile>